<?xml version="1.0" standalone="no"?>
<!DOCTYPE svg PUBLIC "-//W3C//DTD SVG 20010904//EN"
 "http://www.w3.org/TR/2001/REC-SVG-20010904/DTD/svg10.dtd">
<svg version="1.0" xmlns="http://www.w3.org/2000/svg"
 width="500.000000pt" height="500.000000pt" viewBox="0 0 500.000000 500.000000"
 preserveAspectRatio="xMidYMid meet">
<metadata>
Created by potrace 1.14, written by Peter Selinger 2001-2017
</metadata>
<g transform="translate(0.000000,500.000000) scale(0.100000,-0.100000)"
fill="#000000" stroke="none">
<path d="M4254 4009 c-18 -5 -46 -25 -62 -44 -43 -48 -52 -105 -27 -180 5 -17
-22 -46 -159 -168 -91 -81 -167 -147 -170 -147 -2 0 -18 13 -36 30 -52 48
-140 53 -200 10 l-30 -21 -26 20 c-14 11 -85 74 -158 140 -114 102 -134 125
-139 155 -12 75 -74 127 -151 128 -82 2 -143 -55 -155 -141 -6 -48 -8 -50
-194 -215 -186 -165 -187 -166 -212 -150 -32 21 -102 21 -142 1 -75 -39 -107
-150 -61 -216 32 -48 81 -74 139 -75 59 -1 95 23 127 85 22 43 23 49 10 132
-2 11 55 68 177 176 l179 159 29 -24 c63 -53 153 -50 210 7 35 35 18 45 205
-121 l129 -115 5 -53 c10 -114 109 -177 213 -138 53 21 85 61 92 117 5 37 19
52 190 204 155 138 188 163 203 155 10 -6 40 -10 67 -10 66 0 115 34 138 95
32 82 5 152 -75 193 -47 24 -67 25 -116 11z m95 -63 c73 -38 65 -139 -15 -172
-40 -17 -72 -7 -103 32 -37 47 -25 110 27 138 34 19 56 20 91 2z m-1193 -100
c44 -44 45 -83 5 -128 -22 -25 -36 -32 -66 -32 -30 0 -44 7 -66 32 -45 51 -34
117 25 146 46 23 64 20 102 -18z m605 -395 c21 -22 29 -39 29 -66 0 -45 -45
-95 -85 -95 -40 0 -81 26 -95 59 -40 96 77 175 151 102z m-1230 -100 c20 -20
29 -39 29 -61 0 -47 -47 -90 -97 -90 -59 1 -93 38 -93 100 0 77 102 109 161
51z"/>
<path d="M2280 2810 l0 -100 -65 0 -65 0 0 -80 0 -80 65 0 65 0 0 -227 c0
-126 5 -246 10 -267 12 -55 39 -87 94 -115 43 -21 60 -24 167 -23 65 0 123 3
129 7 5 3 10 40 10 81 l0 74 -34 0 c-46 0 -94 18 -106 40 -6 11 -10 109 -10
224 l0 206 85 0 85 0 0 80 0 80 -85 0 -85 0 0 100 0 100 -130 0 -130 0 0 -100z"/>
<path d="M3975 2734 c-90 -23 -113 -36 -146 -82 l-34 -47 -3 58 -3 57 -134 0
-135 0 0 -395 0 -395 135 0 135 0 0 228 c0 179 3 240 16 282 18 59 57 105 100
116 44 11 105 -15 128 -56 19 -32 21 -56 24 -302 l4 -268 130 0 129 0 -3 308
-3 307 -28 56 c-27 57 -71 96 -130 118 -33 13 -153 22 -182 15z"/>
</g>
</svg>
